{
  "source": "C:\\Users\\Peter\\Desktop\\stuff\\MIUN\\quantitative_research\\video_compression\\videos\\BVI-HD\\BVI-HD_CDVL_videos\\ORIG\\CloudsZoom_1920x1080_60fps.mp4",
  "output": "C:\\Users\\Peter\\Desktop\\stuff\\MIUN\\quantitative_research\\video_compression\\compressed_videos\\BVI-HD\\h264\\1.5\\CloudsZoom_1920x1080_60fps_h264.mp4",
  "codec": "h264",
  "ok": "Input #0, mov,mp4,m4a,3gp,3g2,mj2, from 'C:\\Users\\Peter\\Desktop\\stuff\\MIUN\\quantitative_research\\video_compression\\videos\\BVI-HD\\BVI-HD_CDVL_videos\\ORIG\\CloudsZoom_1920x1080_60fps.mp4':\n  Metadata:\n    major_brand     : isom\n    minor_version   : 512\n    compatible_brands: isomiso2avc1mp41\n    encoder         : Lavf54.28.101\n  Duration: 00:00:05.00, start: 0.000000, bitrate: 32589 kb/s\n  Stream #0:0[0x1](und): Video: h264 (High 4:4:4 Predictive) (avc1 / 0x31637661), yuv420p(progressive), 1920x1080, 32586 kb/s, 60 fps, 60 tbr, 60 tbn (default)\n    Metadata:\n      handler_name    : VideoHandler\n      vendor_id       : [0][0][0][0]\n[out#0/mp4 @ 000002b734964e40] Codec AVOption b:a (set bitrate (in bits/s)) has not been used for any stream. The most likely reason is either wrong type (e.g. a video option with no video streams) or that it is a private option of some decoder which was not actually used for any stream.\nStream mapping:\n  Stream #0:0 -> #0:0 (h264 (native) -> h264 (libx264))\nPress [q] to stop, [?] for help\n[libx264 @ 000002b734d8f040] using cpu capabilities: MMX2 SSE2Fast SSSE3 SSE4.2 AVX FMA3 BMI2 AVX2\n[libx264 @ 000002b734d8f040] profile High, level 5.0, 4:2:0, 8-bit\n[libx264 @ 000002b734d8f040] 264 - core 165 r3222 b35605a - H.264/MPEG-4 AVC codec - Copyleft 2003-2025 - http://www.videolan.org/x264.html - options: cabac=1 ref=5 deblock=1:0:0 analyse=0x3:0x113 me=hex subme=8 psy=1 psy_rd=1.00:0.00 mixed_ref=1 me_range=16 chroma_me=1 trellis=2 8x8dct=1 cqm=0 deadzone=21,11 fast_pskip=1 chroma_qp_offset=-2 threads=18 lookahead_threads=3 sliced_threads=0 nr=0 decimate=1 interlaced=0 bluray_compat=0 constrained_intra=0 bframes=3 b_pyramid=2 b_adapt=1 b_bias=0 direct=3 weightb=1 open_gop=0 weightp=2 keyint=250 keyint_min=25 scenecut=40 intra_refresh=0 rc_lookahead=50 rc=cbr mbtree=1 bitrate=1500 ratetol=1.0 qcomp=0.60 qpmin=0 qpmax=69 qpstep=4 vbv_maxrate=1500 vbv_bufsize=1500 nal_hrd=none filler=0 ip_ratio=1.40 aq=1:1.00\nOutput #0, mp4, to 'C:\\Users\\Peter\\Desktop\\stuff\\MIUN\\quantitative_research\\video_compression\\compressed_videos\\BVI-HD\\h264\\1.5\\CloudsZoom_1920x1080_60fps_h264.mp4':\n  Metadata:\n    major_brand     : isom\n    minor_version   : 512\n    compatible_brands: isomiso2avc1mp41\n    encoder         : Lavf62.3.100\n  Stream #0:0(und): Video: h264 (avc1 / 0x31637661), yuv420p(tv, progressive), 1920x1080, q=2-31, 1500 kb/s, 60 fps, 15360 tbn (default)\n    Metadata:\n      encoder         : Lavc62.11.100 libx264\n      handler_name    : VideoHandler\n      vendor_id       : [0][0][0][0]\n    Side data:\n      cpb: bitrate max/min/avg: 1500000/0/1500000 buffer size: 1500000 vbv_delay: N/A\nframe=    0 fps=0.0 q=0.0 size=       0KiB time=N/A bitrate=N/A speed=N/A elapsed=0:00:00.52    \nframe=   64 fps= 62 q=32.0 size=       0KiB time=00:00:00.96 bitrate=   0.4kbits/s speed=0.932x elapsed=0:00:01.03    \nframe=  124 fps= 79 q=31.0 size=     256KiB time=00:00:02.03 bitrate=1031.6kbits/s speed= 1.3x elapsed=0:00:01.56    \nframe=  188 fps= 90 q=32.0 size=     256KiB time=00:00:03.05 bitrate= 687.7kbits/s speed=1.46x elapsed=0:00:02.08    \nframe=  250 fps= 96 q=32.0 size=     512KiB time=00:00:04.13 bitrate=1014.8kbits/s speed=1.58x elapsed=0:00:02.60    \n[mp4 @ 000002b7343e1200] Starting second pass: moving the moov atom to the beginning of the file\n[out#0/mp4 @ 000002b734964e40] video:850KiB audio:0KiB subtitle:0KiB other streams:0KiB global headers:0KiB muxing overhead: 0.512107%\nframe=  300 fps=104 q=-1.0 Lsize=     854KiB time=00:00:04.96 bitrate=1408.4kbits/s speed=1.73x elapsed=0:00:02.87    \n[libx264 @ 000002b734d8f040] frame I:2     Avg QP:19.51  size: 18956\n[libx264 @ 000002b734d8f040] frame P:76    Avg QP:20.23  size:  5624\n[libx264 @ 000002b734d8f040] frame B:222   Avg QP:18.59  size:  1819\n[libx264 @ 000002b734d8f040] consecutive B-frames:  1.3%  0.0%  0.0% 98.7%\n[libx264 @ 000002b734d8f040] mb I  I16..4: 19.9% 80.1%  0.0%\n[libx264 @ 000002b734d8f040] mb P  I16..4:  2.0% 11.9%  0.0%  P16..4: 20.5%  1.6%  0.7%  0.0%  0.0%    skip:63.3%\n[libx264 @ 000002b734d8f040] mb B  I16..4:  0.3%  0.3%  0.0%  B16..8: 14.0%  0.4%  0.0%  direct: 3.0%  skip:82.0%  L0:61.5% L1:38.4% BI: 0.0%\n[libx264 @ 000002b734d8f040] 8x8 transform intra:81.8% inter:99.8%\n[libx264 @ 000002b734d8f040] direct mvs  spatial:95.5% temporal:4.5%\n[libx264 @ 000002b734d8f040] coded y,uvDC,uvAC intra: 13.6% 15.5% 0.3% inter: 0.2% 4.6% 0.0%\n[libx264 @ 000002b734d8f040] i16 v,h,dc,p: 40% 24% 29%  7%\n[libx264 @ 000002b734d8f040] i8 v,h,dc,ddl,ddr,vr,hd,vl,hu: 12%  6% 80%  0%  0%  0%  0%  0%  0%\n[libx264 @ 000002b734d8f040] i4 v,h,dc,ddl,ddr,vr,hd,vl,hu:  0% 12%  0%  2% 15%  2% 42%  0% 27%\n[libx264 @ 000002b734d8f040] i8c dc,h,v,p: 75% 15%  9%  1%\n[libx264 @ 000002b734d8f040] Weighted P-Frames: Y:0.0% UV:0.0%\n[libx264 @ 000002b734d8f040] ref P L0: 52.5%  1.6% 27.5% 10.8%  7.6%\n[libx264 @ 000002b734d8f040] ref B L0: 64.5% 25.9%  7.4%  2.2%\n[libx264 @ 000002b734d8f040] ref B L1: 88.0% 12.0%\n[libx264 @ 000002b734d8f040] kb/s:1390.68\n",
  "seconds": 3.055562973022461,
  "probe_out": {}
}